<?xml version="1.0" encoding="UTF-8" standalone="no"?>
<!-- Created with Inkscape (http://www.inkscape.org/) -->

<svg
   xmlns:dc="http://purl.org/dc/elements/1.1/"
   xmlns:cc="http://creativecommons.org/ns#"
   xmlns:rdf="http://www.w3.org/1999/02/22-rdf-syntax-ns#"
   xmlns:svg="http://www.w3.org/2000/svg"
   xmlns="http://www.w3.org/2000/svg"
   xmlns:sodipodi="http://sodipodi.sourceforge.net/DTD/sodipodi-0.dtd"
   xmlns:inkscape="http://www.inkscape.org/namespaces/inkscape"
   width="228.57231"
   height="229.76785"
   id="svg4068"
   version="1.1"
   inkscape:version="0.48.3.1 r9886"
   sodipodi:docname="match_control_points_by_locaction.svg">
  <defs
     id="defs4070" />
  <sodipodi:namedview
     id="base"
     pagecolor="#ffffff"
     bordercolor="#666666"
     borderopacity="1.0"
     inkscape:pageopacity="0.0"
     inkscape:pageshadow="2"
     inkscape:zoom="0.7"
     inkscape:cx="-99.517708"
     inkscape:cy="345.72634"
     inkscape:document-units="px"
     inkscape:current-layer="layer1"
     showgrid="false"
     inkscape:window-width="1071"
     inkscape:window-height="864"
     inkscape:window-x="3"
     inkscape:window-y="108"
     inkscape:window-maximized="0"
     fit-margin-top="0"
     fit-margin-left="0"
     fit-margin-right="0"
     fit-margin-bottom="0" />
  <metadata
     id="metadata4073">
    <rdf:RDF>
      <cc:Work
         rdf:about="">
        <dc:format>image/svg+xml</dc:format>
        <dc:type
           rdf:resource="http://purl.org/dc/dcmitype/StillImage" />
        <dc:title></dc:title>
      </cc:Work>
    </rdf:RDF>
  </metadata>
  <g
     inkscape:label="Layer 1"
     inkscape:groupmode="layer"
     id="layer1"
     transform="translate(-311.42813,-526.23352)">
    <path
       inkscape:export-ydpi="9.4799995"
       inkscape:export-xdpi="9.4799995"
       inkscape:export-filename="/home/stefan/.qgis/python/plugins/cadtools/icons/showazimuth.png"
       transform="matrix(2.2884887,0.68946949,-0.68946949,2.2884887,343.03195,-1225.5055)"
       d="m 241.19234,728.0835 c 0,4.45507 -3.61156,8.06663 -8.06664,8.06663 -4.45508,0 -8.06663,-3.61156 -8.06663,-8.06663 0,-4.45508 3.61155,-8.06664 8.06663,-8.06664 4.45508,0 8.06664,3.61156 8.06664,8.06664 z"
       sodipodi:ry="8.0666332"
       sodipodi:rx="8.0666332"
       sodipodi:cy="728.0835"
       sodipodi:cx="233.1257"
       id="path3328-0-3-7"
       style="fill:#c8e6fa;fill-opacity:1;stroke:#559ccf;stroke-width:4.23113489;stroke-miterlimit:4;stroke-opacity:0.98823529;stroke-dasharray:none"
       sodipodi:type="arc" />
    <rect
       style="fill:none;stroke:none"
       id="rect3201-1-2-8"
       width="228.57231"
       height="229.40024"
       x="311.42813"
       y="526.23352"
       ry="0"
       inkscape:export-filename="/home/stefan/Pictures/ortho1.png"
       inkscape:export-xdpi="9.4799995"
       inkscape:export-ydpi="9.4799995" />
    <path
       sodipodi:type="arc"
       style="fill:none;stroke:#ff0000;stroke-width:9.68351364;stroke-miterlimit:4;stroke-opacity:1;stroke-dasharray:none"
       id="path3972"
       sodipodi:cx="473.57144"
       sodipodi:cy="481.64789"
       sodipodi:rx="96.428574"
       sodipodi:ry="96.428574"
       d="m 570.00002,481.64789 c 0,53.25603 -43.17255,96.42857 -96.42858,96.42857 -53.25603,0 -96.42857,-43.17254 -96.42857,-96.42857 0,-53.25603 43.17254,-96.42858 96.42857,-96.42858 53.25603,0 96.42858,43.17255 96.42858,96.42858 z"
       transform="matrix(1.032683,0,0,1.032683,-72.19202,154.044)" />
    <path
       sodipodi:type="arc"
       style="fill:#c8e6fa;fill-opacity:1;stroke:#2b5d7f;stroke-width:4.23113489;stroke-miterlimit:4;stroke-opacity:1;stroke-dasharray:none"
       id="path3218-0-4-4-0-3"
       sodipodi:cx="233.1257"
       sodipodi:cy="728.0835"
       sodipodi:rx="8.0666332"
       sodipodi:ry="8.0666332"
       d="m 241.19234,728.0835 c 0,4.45507 -3.61156,8.06663 -8.06664,8.06663 -4.45508,0 -8.06663,-3.61156 -8.06663,-8.06663 0,-4.45508 3.61155,-8.06664 8.06663,-8.06664 4.45508,0 8.06664,3.61156 8.06664,8.06664 z"
       transform="matrix(1.9367034,-1.401273,1.401273,1.9367034,-1055.3667,-430.10306)"
       inkscape:export-filename="/home/stefan/Documents/freeframe.png"
       inkscape:export-xdpi="9.4799995"
       inkscape:export-ydpi="9.4799995" />
    <path
       inkscape:export-ydpi="9.4799995"
       inkscape:export-xdpi="9.4799995"
       inkscape:export-filename="/home/stefan/.qgis/python/plugins/cadtools/icons/showazimuth.png"
       transform="matrix(2.2884887,0.68946949,-0.68946949,2.2884887,483.48583,-1276.0102)"
       d="m 241.19234,728.0835 c 0,4.45507 -3.61156,8.06663 -8.06664,8.06663 -4.45508,0 -8.06663,-3.61156 -8.06663,-8.06663 0,-4.45508 3.61155,-8.06664 8.06663,-8.06664 4.45508,0 8.06664,3.61156 8.06664,8.06664 z"
       sodipodi:ry="8.0666332"
       sodipodi:rx="8.0666332"
       sodipodi:cy="728.0835"
       sodipodi:cx="233.1257"
       id="path3328-0-3-7-4"
       style="fill:#c8e6fa;fill-opacity:1;stroke:#559ccf;stroke-width:4.23113489;stroke-miterlimit:4;stroke-opacity:0.98823529;stroke-dasharray:none"
       sodipodi:type="arc" />
  </g>
</svg>
